<svg xmlns="http://www.w3.org/2000/svg" version="1.1" xmlns:xlink="http://www.w3.org/1999/xlink" xmlns:svgjs="http://svgjs.dev/svgjs" width="2000" height="1247" viewBox="0 0 2000 1247"><g transform="matrix(1,0,0,1,-1.2121212121212466,0.504858299595071)"><svg viewBox="0 0 396 247" data-background-color="#ffffff" preserveAspectRatio="xMidYMid meet" height="1247" width="2000" xmlns="http://www.w3.org/2000/svg" xmlns:xlink="http://www.w3.org/1999/xlink"><g id="tight-bounds" transform="matrix(1,0,0,1,0.2400000000000091,-0.09999999999999432)"><svg viewBox="0 0 395.52 247.2" height="247.2" width="395.52"><g><svg></svg></g><g><svg viewBox="0 0 395.52 247.2" height="247.2" width="395.52"><mask id="48a99883-fbf1-40dc-b36d-7b71817a654a"><rect width="395.52" height="247.2" fill="white"></rect><g transform="matrix(1,0,0,1,0,73.3359025889585)" id="clone"><svg viewBox="0 0 395.52 100.528194822083" height="100.528194822083" width="395.52"><g><svg viewBox="0 0 395.52 100.528194822083" height="100.528194822083" width="395.52"><g><svg viewBox="0 0 395.52 100.528194822083" height="100.528194822083" width="395.52"><g><svg viewBox="0 0 395.52 100.528194822083" height="100.528194822083" width="395.52"><g id="SvgjsG1164"><svg viewBox="0 0 395.52 100.528194822083" height="100.528194822083" width="395.52" id="SvgjsSvg1163"><g><svg viewBox="0 0 395.52 100.528194822083" height="100.528194822083" width="395.52"><g transform="matrix(1,0,0,1,0,0)"><svg width="395.52" viewBox="1.2300000000000004 -39.8 212.46 54.75" height="100.528194822083" data-palette-color="#00aec7"><path d="M44.6 0L36.5 0 36.5-14.35Q36.5-16.3 35.56-17.24 34.63-18.18 33.23-18.18L33.23-18.18Q31.18-18.18 29.88-16.41 28.58-14.65 28.58-10.38L28.58-10.38 25.43-10.38Q25.43-14.8 26.23-17.71 27.03-20.63 28.43-22.31 29.83-24 31.64-24.71 33.45-25.43 35.5-25.43L35.5-25.43Q38.65-25.43 40.66-24 42.68-22.58 43.64-20.08 44.6-17.57 44.6-14.35L44.6-14.35 44.6 0ZM12.23 0L4.23 0 4.23-24.63 11.28-24.63 12.13-21.15Q13.4-23.38 15.31-24.4 17.23-25.43 19.48-25.43L19.48-25.43Q22.65-25.43 24.66-24 26.68-22.58 27.63-20.08 28.58-17.57 28.58-14.35L28.58-14.35 28.58 0 20.53 0 20.53-14.35Q20.53-16.3 19.58-17.24 18.63-18.18 17.28-18.18L17.28-18.18Q15.9-18.18 14.75-17.4 13.6-16.63 12.91-14.91 12.23-13.2 12.23-10.38L12.23-10.38 12.23 0ZM57.15-27.8L57.15-27.8Q54.87-27.8 53.64-28.96 52.4-30.13 52.4-32.25L52.4-32.25Q52.4-34.33 53.64-35.56 54.87-36.8 57.15-36.8L57.15-36.8Q59.35-36.8 60.62-35.56 61.9-34.33 61.9-32.25L61.9-32.25Q61.9-30.13 60.62-28.96 59.35-27.8 57.15-27.8ZM61.15 0L53.15 0 53.15-24.78 61.15-24.78 61.15 0ZM94.7 0L86.65 0 86.65-14.35Q86.65-16.3 85.7-17.24 84.75-18.18 83.4-18.18L83.4-18.18Q82.02-18.18 80.87-17.4 79.72-16.63 79.03-14.91 78.34-13.2 78.34-10.38L78.34-10.38 75.92-10.38Q75.92-15.68 77.18-19 78.45-22.33 80.63-23.88 82.82-25.43 85.59-25.43L85.59-25.43Q88.77-25.43 90.78-24 92.8-22.58 93.75-20.08 94.7-17.57 94.7-14.35L94.7-14.35 94.7 0ZM78.34 0L70.34 0 70.34-24.63 77.4-24.63 78.34-20.55 78.34 0ZM107.29-27.8L107.29-27.8Q105.02-27.8 103.78-28.96 102.54-30.13 102.54-32.25L102.54-32.25Q102.54-34.33 103.78-35.56 105.02-36.8 107.29-36.8L107.29-36.8Q109.49-36.8 110.77-35.56 112.04-34.33 112.04-32.25L112.04-32.25Q112.04-30.13 110.77-28.96 109.49-27.8 107.29-27.8ZM111.29 0L103.29 0 103.29-24.78 111.29-24.78 111.29 0ZM134.02 0.8L134.02 0.8Q131.29 0.8 129.47-0.3 127.64-1.4 126.73-3.75 125.82-6.1 125.82-9.85L125.82-9.85 128.49-9.85Q128.49-8.85 129.07-8.1 129.64-7.35 130.62-6.93 131.59-6.5 132.74-6.5L132.74-6.5Q133.89-6.5 135.1-7.08 136.32-7.65 137.15-8.93 137.99-10.2 137.99-12.3L137.99-12.3Q137.99-14.08 137.37-15.4 136.74-16.73 135.6-17.45 134.47-18.18 132.89-18.18L132.89-18.18Q131.62-18.18 130.62-17.65 129.62-17.13 129.05-16.16 128.49-15.2 128.49-13.9L128.49-13.9 125.82-13.9Q125.82-18.1 127.03-20.63 128.24-23.15 130.22-24.29 132.19-25.43 134.42-25.43L134.42-25.43Q137.37-25.43 140.02-23.88 142.67-22.33 144.33-19.4 145.99-16.48 145.99-12.3L145.99-12.3Q145.99-8.15 144.3-5.23 142.62-2.3 139.88-0.75 137.14 0.8 134.02 0.8ZM128.49 11.95L120.49 11.95 120.49-24.63 127.02-24.63 128.49-18.2 128.49 11.95ZM157.11-27.8L157.11-27.8Q154.84-27.8 153.6-28.96 152.36-30.13 152.36-32.25L152.36-32.25Q152.36-34.33 153.6-35.56 154.84-36.8 157.11-36.8L157.11-36.8Q159.31-36.8 160.59-35.56 161.86-34.33 161.86-32.25L161.86-32.25Q161.86-30.13 160.59-28.96 159.31-27.8 157.11-27.8ZM161.11 0L153.11 0 153.11-24.78 161.11-24.78 161.11 0ZM210.69 0L202.59 0 202.59-14.35Q202.59-16.3 201.65-17.24 200.71-18.18 199.31-18.18L199.31-18.18Q197.26-18.18 195.96-16.41 194.66-14.65 194.66-10.38L194.66-10.38 191.51-10.38Q191.51-14.8 192.31-17.71 193.11-20.63 194.51-22.31 195.91-24 197.72-24.71 199.54-25.43 201.59-25.43L201.59-25.43Q204.74-25.43 206.75-24 208.76-22.58 209.72-20.08 210.69-17.57 210.69-14.35L210.69-14.35 210.69 0ZM178.31 0L170.31 0 170.31-24.63 177.36-24.63 178.21-21.15Q179.49-23.38 181.4-24.4 183.31-25.43 185.56-25.43L185.56-25.43Q188.74-25.43 190.75-24 192.76-22.58 193.71-20.08 194.66-17.57 194.66-14.35L194.66-14.35 194.66 0 186.61 0 186.61-14.35Q186.61-16.3 185.66-17.24 184.71-18.18 183.36-18.18L183.36-18.18Q181.99-18.18 180.84-17.4 179.69-16.63 179-14.91 178.31-13.2 178.31-10.38L178.31-10.38 178.31 0Z" opacity="1" transform="matrix(1,0,0,1,0,0)" fill="black" class="wordmark-text-0" id="SvgjsPath1162" stroke-width="5" stroke="black" stroke-linejoin="round"></path></svg></g></svg></g></svg></g></svg></g></svg></g></svg></g></svg></g></mask><g mask="url(#48a99883-fbf1-40dc-b36d-7b71817a654a)"><g><path d="M62.666 247.2v-247.2h84.365l54.671 131.889h-4.568l54.671-131.889h81.049v247.2h-59.313v-175.95h8.105l-63.513 152.888h-38.167l-63.145-152.52h4.79v175.582z" fill="#ffffff" fill-rule="nonzero" stroke="none" stroke-width="1" stroke-linecap="butt" stroke-linejoin="miter" stroke-miterlimit="10" stroke-dasharray="" stroke-dashoffset="0" font-family="none" font-weight="none" font-size="none" text-anchor="none" style="mix-blend-mode: normal" data-fill-palette-color="tertiary"></path></g></g><g transform="matrix(1,0,0,1,0,73.3359025889585)"><svg viewBox="0 0 395.52 100.528194822083" height="100.528194822083" width="395.52"><g><svg viewBox="0 0 395.52 100.528194822083" height="100.528194822083" width="395.52"><g><svg viewBox="0 0 395.52 100.528194822083" height="100.528194822083" width="395.52"><g><svg viewBox="0 0 395.52 100.528194822083" height="100.528194822083" width="395.52"><g id="textblocktransform"><svg viewBox="0 0 395.52 100.528194822083" height="100.528194822083" width="395.52" id="textblock"><g><svg viewBox="0 0 395.52 100.528194822083" height="100.528194822083" width="395.52"><g transform="matrix(1,0,0,1,0,0)"><svg width="395.52" viewBox="1.2300000000000004 -39.8 212.46 54.75" height="100.528194822083" data-palette-color="#00aec7"><path d="M44.6 0L36.5 0 36.5-14.35Q36.5-16.3 35.56-17.24 34.63-18.18 33.23-18.18L33.23-18.18Q31.18-18.18 29.88-16.41 28.58-14.65 28.58-10.38L28.58-10.38 25.43-10.38Q25.43-14.8 26.23-17.71 27.03-20.63 28.43-22.31 29.83-24 31.64-24.71 33.45-25.43 35.5-25.43L35.5-25.43Q38.65-25.43 40.66-24 42.68-22.58 43.64-20.08 44.6-17.57 44.6-14.35L44.6-14.35 44.6 0ZM12.23 0L4.23 0 4.23-24.63 11.28-24.63 12.13-21.15Q13.4-23.38 15.31-24.4 17.23-25.43 19.48-25.43L19.48-25.43Q22.65-25.43 24.66-24 26.68-22.58 27.63-20.08 28.58-17.57 28.58-14.35L28.58-14.35 28.58 0 20.53 0 20.53-14.35Q20.53-16.3 19.58-17.24 18.63-18.18 17.28-18.18L17.28-18.18Q15.9-18.18 14.75-17.4 13.6-16.63 12.91-14.91 12.23-13.2 12.23-10.38L12.23-10.38 12.23 0ZM57.15-27.8L57.15-27.8Q54.87-27.8 53.64-28.96 52.4-30.13 52.4-32.25L52.4-32.25Q52.4-34.33 53.64-35.56 54.87-36.8 57.15-36.8L57.15-36.8Q59.35-36.8 60.62-35.56 61.9-34.33 61.9-32.25L61.9-32.25Q61.9-30.13 60.62-28.96 59.35-27.8 57.15-27.8ZM61.15 0L53.15 0 53.15-24.78 61.15-24.78 61.15 0ZM94.7 0L86.65 0 86.65-14.35Q86.65-16.3 85.7-17.24 84.75-18.18 83.4-18.18L83.4-18.18Q82.02-18.18 80.87-17.4 79.72-16.63 79.03-14.91 78.34-13.2 78.34-10.38L78.34-10.38 75.92-10.38Q75.92-15.68 77.18-19 78.45-22.33 80.63-23.88 82.82-25.43 85.59-25.43L85.59-25.43Q88.77-25.43 90.78-24 92.8-22.58 93.75-20.08 94.7-17.57 94.7-14.35L94.7-14.35 94.7 0ZM78.34 0L70.34 0 70.34-24.63 77.4-24.63 78.34-20.55 78.34 0ZM107.29-27.8L107.29-27.8Q105.02-27.8 103.78-28.96 102.54-30.13 102.54-32.25L102.54-32.25Q102.54-34.33 103.78-35.56 105.02-36.8 107.29-36.8L107.29-36.8Q109.49-36.8 110.77-35.56 112.04-34.33 112.04-32.25L112.04-32.25Q112.04-30.13 110.77-28.96 109.49-27.8 107.29-27.8ZM111.29 0L103.29 0 103.29-24.78 111.29-24.78 111.29 0ZM134.02 0.8L134.02 0.8Q131.29 0.8 129.47-0.3 127.64-1.4 126.73-3.75 125.82-6.1 125.82-9.85L125.82-9.85 128.49-9.85Q128.49-8.85 129.07-8.1 129.64-7.35 130.62-6.93 131.59-6.5 132.74-6.5L132.74-6.5Q133.89-6.5 135.1-7.08 136.32-7.65 137.15-8.93 137.99-10.2 137.99-12.3L137.99-12.3Q137.99-14.08 137.37-15.4 136.74-16.73 135.6-17.45 134.47-18.18 132.89-18.18L132.89-18.18Q131.62-18.18 130.62-17.65 129.62-17.13 129.05-16.16 128.49-15.2 128.49-13.9L128.49-13.9 125.82-13.9Q125.82-18.1 127.03-20.63 128.24-23.15 130.22-24.29 132.19-25.43 134.42-25.43L134.42-25.43Q137.37-25.43 140.02-23.88 142.67-22.33 144.33-19.4 145.99-16.48 145.99-12.3L145.99-12.3Q145.99-8.15 144.3-5.23 142.62-2.3 139.88-0.75 137.14 0.8 134.02 0.8ZM128.49 11.95L120.49 11.95 120.49-24.63 127.02-24.63 128.49-18.2 128.49 11.95ZM157.11-27.8L157.11-27.8Q154.84-27.8 153.6-28.96 152.36-30.13 152.36-32.25L152.36-32.25Q152.36-34.33 153.6-35.56 154.84-36.8 157.11-36.8L157.11-36.8Q159.31-36.8 160.59-35.56 161.86-34.33 161.86-32.25L161.86-32.25Q161.86-30.13 160.59-28.96 159.31-27.8 157.11-27.8ZM161.11 0L153.11 0 153.11-24.78 161.11-24.78 161.11 0ZM210.69 0L202.59 0 202.59-14.35Q202.59-16.3 201.65-17.24 200.71-18.18 199.31-18.18L199.31-18.18Q197.26-18.18 195.96-16.41 194.66-14.65 194.66-10.38L194.66-10.38 191.51-10.38Q191.51-14.8 192.31-17.71 193.11-20.63 194.51-22.31 195.91-24 197.72-24.71 199.54-25.43 201.59-25.43L201.59-25.43Q204.74-25.43 206.75-24 208.76-22.58 209.72-20.08 210.69-17.57 210.69-14.35L210.69-14.35 210.69 0ZM178.31 0L170.31 0 170.31-24.63 177.36-24.63 178.21-21.15Q179.49-23.38 181.4-24.4 183.31-25.43 185.56-25.43L185.56-25.43Q188.74-25.43 190.75-24 192.76-22.58 193.71-20.08 194.66-17.57 194.66-14.35L194.66-14.35 194.66 0 186.61 0 186.61-14.35Q186.61-16.3 185.66-17.24 184.71-18.18 183.36-18.18L183.36-18.18Q181.99-18.18 180.84-17.4 179.69-16.63 179-14.91 178.31-13.2 178.31-10.38L178.31-10.38 178.31 0Z" opacity="1" transform="matrix(1,0,0,1,0,0)" fill="#ffffff" class="wordmark-text-0" data-fill-palette-color="primary" id="text-0"></path></svg></g></svg></g></svg></g></svg></g></svg></g></svg></g></svg></g></svg></g><defs></defs></svg><rect width="395.52" height="247.2" fill="none" stroke="none" visibility="hidden"></rect></g></svg></g></svg>